<svg width="1200" height="300" viewBox="0 0 1200 300" fill="none" xmlns="http://www.w3.org/2000/svg">
<rect width="1200" height="300" fill="black"/>
<g filter="url(#filter0_d_1_72)">
<path d="M240.585 193V105.727H259.037V144.207H260.188L291.594 105.727H313.71L281.324 144.804L314.094 193H292.02L268.114 157.119L259.037 168.199V193H240.585ZM313.72 193V105.727H372.526V120.94H332.171V141.736H369.501V156.949H332.171V177.787H372.697V193H313.72ZM374.272 120.94V105.727H445.948V120.94H419.23V193H400.991V120.94H374.272ZM448.152 193V105.727H506.959V120.94H466.604V141.736H503.934V156.949H466.604V177.787H507.13V193H448.152ZM512.029 193V105.727H530.481V177.787H567.895V193H512.029ZM570.515 105.727H593.271L617.305 164.364H618.327L642.362 105.727H665.117V193H647.219V136.196H646.495L623.91 192.574H611.722L589.137 135.983H588.413V193H570.515V105.727ZM685.762 193H665.989L696.117 105.727H719.896L749.981 193H730.208L708.347 125.67H707.666L685.762 193ZM684.526 158.696H731.231V173.099H684.526V158.696ZM823.882 105.727V193H807.945L769.976 138.071H769.337V193H750.885V105.727H767.078L804.749 160.614H805.516V105.727H823.882Z" fill="white"/>
</g>
<g filter="url(#filter1_i_1_72)">
<path d="M845.596 195V162.273H866.114V166.523H850.533V176.495H865.043V180.73H850.533V190.749H866.306V195H845.596ZM895.525 162.273V195H890.987L874.351 170.998H874.048V195H869.11V162.273H873.68L890.331 186.307H890.635V162.273H895.525ZM921.276 172.612C920.967 171.642 920.552 170.774 920.03 170.007C919.519 169.229 918.906 168.569 918.192 168.026C917.478 167.472 916.663 167.051 915.747 166.763C914.842 166.475 913.846 166.332 912.759 166.332C910.916 166.332 909.254 166.806 907.773 167.754C906.292 168.702 905.12 170.092 904.258 171.925C903.405 173.746 902.979 175.978 902.979 178.62C902.979 181.273 903.411 183.516 904.274 185.348C905.136 187.18 906.319 188.571 907.821 189.519C909.323 190.467 911.033 190.941 912.951 190.941C914.73 190.941 916.28 190.579 917.601 189.854C918.933 189.13 919.961 188.107 920.685 186.786C921.42 185.455 921.788 183.888 921.788 182.088L923.066 182.328H913.702V178.253H926.566V181.976C926.566 184.725 925.98 187.111 924.808 189.135C923.647 191.149 922.038 192.704 919.982 193.801C917.937 194.899 915.593 195.447 912.951 195.447C909.989 195.447 907.39 194.766 905.152 193.402C902.926 192.038 901.189 190.105 899.943 187.601C898.696 185.087 898.073 182.104 898.073 178.652C898.073 176.042 898.435 173.699 899.16 171.621C899.884 169.544 900.902 167.781 902.212 166.332C903.533 164.872 905.083 163.759 906.862 162.992C908.652 162.214 910.607 161.825 912.727 161.825C914.495 161.825 916.141 162.086 917.665 162.608C919.199 163.13 920.563 163.871 921.756 164.83C922.96 165.788 923.956 166.928 924.744 168.249C925.532 169.56 926.065 171.014 926.342 172.612H921.276ZM934.172 162.273V195H929.234V162.273H934.172ZM964.178 162.273V195H959.64L943.004 170.998H942.701V195H937.763V162.273H942.333L958.984 186.307H959.288V162.273H964.178ZM967.781 195V162.273H988.3V166.523H972.719V176.495H987.229V180.73H972.719V190.749H988.491V195H967.781ZM991.295 195V162.273H1011.81V166.523H996.233V176.495H1010.74V180.73H996.233V190.749H1012.01V195H991.295ZM1014.81 195V162.273H1026.48C1029.01 162.273 1031.11 162.71 1032.79 163.583C1034.47 164.457 1035.73 165.666 1036.56 167.211C1037.39 168.745 1037.8 170.518 1037.8 172.532C1037.8 174.535 1037.38 176.298 1036.54 177.821C1035.71 179.334 1034.45 180.511 1032.77 181.353C1031.1 182.195 1028.99 182.615 1026.46 182.615H1017.62V178.365H1026.01C1027.61 178.365 1028.91 178.136 1029.91 177.678C1030.92 177.219 1031.66 176.554 1032.13 175.68C1032.6 174.806 1032.84 173.757 1032.84 172.532C1032.84 171.296 1032.6 170.225 1032.12 169.32C1031.65 168.414 1030.91 167.722 1029.89 167.243C1028.89 166.752 1027.58 166.507 1025.95 166.507H1019.75V195H1014.81ZM1030.97 180.234L1039.05 195H1033.43L1025.5 180.234H1030.97ZM1045.15 162.273V195H1040.21V162.273H1045.15ZM1075.16 162.273V195H1070.62L1053.98 170.998H1053.68V195H1048.74V162.273H1053.31L1069.96 186.307H1070.27V162.273H1075.16ZM1100.91 172.612C1100.6 171.642 1100.18 170.774 1099.66 170.007C1099.15 169.229 1098.54 168.569 1097.82 168.026C1097.11 167.472 1096.3 167.051 1095.38 166.763C1094.47 166.475 1093.48 166.332 1092.39 166.332C1090.55 166.332 1088.89 166.806 1087.41 167.754C1085.92 168.702 1084.75 170.092 1083.89 171.925C1083.04 173.746 1082.61 175.978 1082.61 178.62C1082.61 181.273 1083.04 183.516 1083.91 185.348C1084.77 187.18 1085.95 188.571 1087.45 189.519C1088.96 190.467 1090.67 190.941 1092.58 190.941C1094.36 190.941 1095.91 190.579 1097.23 189.854C1098.57 189.13 1099.59 188.107 1100.32 186.786C1101.05 185.455 1101.42 183.888 1101.42 182.088L1102.7 182.328H1093.33V178.253H1106.2V181.976C1106.2 184.725 1105.61 187.111 1104.44 189.135C1103.28 191.149 1101.67 192.704 1099.61 193.801C1097.57 194.899 1095.23 195.447 1092.58 195.447C1089.62 195.447 1087.02 194.766 1084.79 193.402C1082.56 192.038 1080.82 190.105 1079.58 187.601C1078.33 185.087 1077.71 182.104 1077.71 178.652C1077.71 176.042 1078.07 173.699 1078.79 171.621C1079.52 169.544 1080.53 167.781 1081.84 166.332C1083.17 164.872 1084.72 163.759 1086.49 162.992C1088.28 162.214 1090.24 161.825 1092.36 161.825C1094.13 161.825 1095.77 162.086 1097.3 162.608C1098.83 163.13 1100.2 163.871 1101.39 164.83C1102.59 165.788 1103.59 166.928 1104.38 168.249C1105.17 169.56 1105.7 171.014 1105.97 172.612H1100.91Z" fill="white"/>
</g>
<g filter="url(#filter2_i_1_72)">
<path d="M845.596 138V105.273H850.533V119.495H866.849V105.273H871.803V138H866.849V123.73H850.533V138H845.596ZM903.823 121.636C903.823 125.131 903.183 128.135 901.905 130.649C900.627 133.153 898.874 135.081 896.648 136.434C894.432 137.776 891.912 138.447 889.089 138.447C886.255 138.447 883.725 137.776 881.498 136.434C879.282 135.081 877.535 133.147 876.257 130.633C874.978 128.119 874.339 125.12 874.339 121.636C874.339 118.142 874.978 115.143 876.257 112.64C877.535 110.125 879.282 108.197 881.498 106.855C883.725 105.502 886.255 104.825 889.089 104.825C891.912 104.825 894.432 105.502 896.648 106.855C898.874 108.197 900.627 110.125 901.905 112.64C903.183 115.143 903.823 118.142 903.823 121.636ZM898.933 121.636C898.933 118.973 898.501 116.73 897.638 114.909C896.786 113.076 895.614 111.691 894.123 110.754C892.642 109.806 890.964 109.332 889.089 109.332C887.203 109.332 885.52 109.806 884.039 110.754C882.558 111.691 881.387 113.076 880.524 114.909C879.671 116.73 879.245 118.973 879.245 121.636C879.245 124.3 879.671 126.548 880.524 128.38C881.387 130.202 882.558 131.587 884.039 132.535C885.52 133.472 887.203 133.941 889.089 133.941C890.964 133.941 892.642 133.472 894.123 132.535C895.614 131.587 896.786 130.202 897.638 128.38C898.501 126.548 898.933 124.3 898.933 121.636ZM906.379 138V105.273H911.317V133.749H926.146V138H906.379ZM938.774 138H928.179V105.273H939.11C942.316 105.273 945.07 105.928 947.371 107.238C949.673 108.538 951.436 110.408 952.661 112.847C953.897 115.276 954.515 118.19 954.515 121.588C954.515 124.998 953.891 127.927 952.645 130.377C951.409 132.828 949.619 134.713 947.276 136.034C944.932 137.345 942.098 138 938.774 138ZM933.117 133.685H938.502C940.995 133.685 943.067 133.217 944.719 132.279C946.37 131.331 947.606 129.962 948.426 128.172C949.246 126.372 949.657 124.177 949.657 121.588C949.657 119.021 949.246 116.842 948.426 115.053C947.616 113.263 946.407 111.904 944.799 110.978C943.19 110.051 941.192 109.587 938.806 109.587H933.117V133.685ZM961.993 105.273V138H957.055V105.273H961.993ZM991.999 105.273V138H987.461L970.825 113.998H970.522V138H965.584V105.273H970.154L986.805 129.307H987.109V105.273H991.999ZM1017.75 115.612C1017.44 114.642 1017.03 113.774 1016.5 113.007C1015.99 112.229 1015.38 111.569 1014.67 111.026C1013.95 110.472 1013.14 110.051 1012.22 109.763C1011.32 109.475 1010.32 109.332 1009.23 109.332C1007.39 109.332 1005.73 109.806 1004.25 110.754C1002.77 111.702 1001.59 113.092 1000.73 114.925C999.879 116.746 999.453 118.978 999.453 121.62C999.453 124.273 999.885 126.516 1000.75 128.348C1001.61 130.18 1002.79 131.571 1004.3 132.519C1005.8 133.467 1007.51 133.941 1009.42 133.941C1011.2 133.941 1012.75 133.579 1014.07 132.854C1015.41 132.13 1016.43 131.107 1017.16 129.786C1017.89 128.455 1018.26 126.888 1018.26 125.088L1019.54 125.328H1010.18V121.253H1023.04V124.976C1023.04 127.725 1022.45 130.111 1021.28 132.135C1020.12 134.149 1018.51 135.704 1016.46 136.801C1014.41 137.899 1012.07 138.447 1009.42 138.447C1006.46 138.447 1003.86 137.766 1001.63 136.402C999.4 135.038 997.663 133.105 996.417 130.601C995.171 128.087 994.547 125.104 994.547 121.652C994.547 119.042 994.909 116.699 995.634 114.621C996.358 112.544 997.376 110.781 998.686 109.332C1000.01 107.872 1001.56 106.759 1003.34 105.992C1005.13 105.214 1007.08 104.825 1009.2 104.825C1010.97 104.825 1012.62 105.086 1014.14 105.608C1015.67 106.13 1017.04 106.871 1018.23 107.83C1019.43 108.788 1020.43 109.928 1021.22 111.249C1022.01 112.56 1022.54 114.014 1022.82 115.612H1017.75Z" fill="white"/>
</g>
<mask id="path-4-outside-1_1_72" maskUnits="userSpaceOnUse" x="83" y="79" width="148" height="135" fill="black">
<rect fill="white" x="83" y="79" width="148" height="135"/>
<path d="M223.001 209H91L157.001 89L223.001 209ZM92.6904 208H221.311L157 91.0742L92.6904 208ZM183.895 155L184.036 155.005C185.435 155.099 186.307 156.587 185.704 157.854L185.639 157.979L158.744 205.893C157.98 207.254 156.02 207.254 155.256 205.893L128.361 157.979C127.613 156.645 128.577 155 130.105 155H183.895ZM130.105 156C129.341 156 128.859 156.823 129.233 157.489L156.128 205.403C156.51 206.084 157.49 206.084 157.872 205.403L184.767 157.489C185.141 156.823 184.659 156 183.895 156H130.105Z"/>
</mask>
<path d="M223.001 209H91L157.001 89L223.001 209ZM92.6904 208H221.311L157 91.0742L92.6904 208ZM183.895 155L184.036 155.005C185.435 155.099 186.307 156.587 185.704 157.854L185.639 157.979L158.744 205.893C157.98 207.254 156.02 207.254 155.256 205.893L128.361 157.979C127.613 156.645 128.577 155 130.105 155H183.895ZM130.105 156C129.341 156 128.859 156.823 129.233 157.489L156.128 205.403C156.51 206.084 157.49 206.084 157.872 205.403L184.767 157.489C185.141 156.823 184.659 156 183.895 156H130.105Z" fill="white"/>
<path d="M223.001 209V213.5H230.612L226.944 206.831L223.001 209ZM91 209L87.057 206.831L83.3892 213.5H91V209ZM157.001 89L160.944 86.8314L157.001 79.6624L153.058 86.8313L157.001 89ZM92.6904 208L88.7475 205.831L85.0797 212.5H92.6904V208ZM221.311 208V212.5H228.921L225.253 205.831L221.311 208ZM157 91.0742L160.943 88.9055L157 81.7366L153.057 88.9056L157 91.0742ZM183.895 155L184.05 150.503L183.972 150.5H183.895V155ZM184.036 155.005L184.339 150.515L184.265 150.51L184.191 150.508L184.036 155.005ZM185.704 157.854L189.691 159.94L189.731 159.864L189.768 159.787L185.704 157.854ZM185.639 157.979L189.563 160.181L189.595 160.124L189.626 160.065L185.639 157.979ZM158.744 205.893L162.668 208.095L162.668 208.095L158.744 205.893ZM155.256 205.893L151.332 208.095L151.332 208.095L155.256 205.893ZM128.361 157.979L124.437 160.181L124.437 160.181L128.361 157.979ZM129.233 157.489L125.309 159.691L125.309 159.692L129.233 157.489ZM156.128 205.403L152.204 207.606L152.204 207.606L156.128 205.403ZM157.872 205.403L161.796 207.606L161.796 207.606L157.872 205.403ZM184.767 157.489L188.691 159.692L188.691 159.691L184.767 157.489ZM223.001 209V204.5H91V209V213.5H223.001V209ZM91 209L94.943 211.169L160.944 91.1687L157.001 89L153.058 86.8313L87.057 206.831L91 209ZM157.001 89L153.058 91.1686L219.058 211.169L223.001 209L226.944 206.831L160.944 86.8314L157.001 89ZM92.6904 208V212.5H221.311V208V203.5H92.6904V208ZM221.311 208L225.253 205.831L160.943 88.9055L157 91.0742L153.057 93.2429L217.368 210.169L221.311 208ZM157 91.0742L153.057 88.9056L88.7475 205.831L92.6904 208L96.6334 210.169L160.943 93.2429L157 91.0742ZM183.895 155L183.739 159.497L183.881 159.502L184.036 155.005L184.191 150.508L184.05 150.503L183.895 155ZM184.036 155.005L183.733 159.495C181.964 159.375 180.878 157.523 181.641 155.92L185.704 157.854L189.768 159.787C191.735 155.651 188.907 150.824 184.339 150.515L184.036 155.005ZM185.704 157.854L181.717 155.767L181.652 155.892L185.639 157.979L189.626 160.065L189.691 159.94L185.704 157.854ZM185.639 157.979L181.715 155.776L154.82 203.69L158.744 205.893L162.668 208.095L189.563 160.181L185.639 157.979ZM158.744 205.893L154.82 203.69C155.775 201.988 158.225 201.988 159.18 203.69L155.256 205.893L151.332 208.095C153.815 212.52 160.185 212.52 162.668 208.095L158.744 205.893ZM155.256 205.893L159.18 203.69L132.285 155.776L128.361 157.979L124.437 160.181L151.332 208.095L155.256 205.893ZM128.361 157.979L132.286 155.776C133.221 157.443 132.016 159.5 130.105 159.5V155V150.5C125.137 150.5 122.006 155.848 124.437 160.181L128.361 157.979ZM130.105 155V159.5H183.895V155V150.5H130.105V155ZM130.105 156V151.5C125.902 151.5 123.251 156.025 125.309 159.691L129.233 157.489L133.158 155.287C134.467 157.621 132.78 160.5 130.105 160.5V156ZM129.233 157.489L125.309 159.692L152.204 207.606L156.128 205.403L160.052 203.201L133.157 155.287L129.233 157.489ZM156.128 205.403L152.204 207.606C154.305 211.35 159.695 211.35 161.796 207.606L157.872 205.403L153.948 203.201C155.285 200.818 158.715 200.818 160.052 203.201L156.128 205.403ZM157.872 205.403L161.796 207.606L188.691 159.692L184.767 157.489L180.843 155.287L153.948 203.201L157.872 205.403ZM184.767 157.489L188.691 159.691C190.749 156.025 188.098 151.5 183.895 151.5V156V160.5C181.22 160.5 179.533 157.621 180.842 155.287L184.767 157.489ZM183.895 156V151.5H130.105V156V160.5H183.895V156Z" fill="white" mask="url(#path-4-outside-1_1_72)"/>
<defs>
<filter id="filter0_d_1_72" x="236.585" y="105.727" width="591.297" height="95.2727" filterUnits="userSpaceOnUse" color-interpolation-filters="sRGB">
<feFlood flood-opacity="0" result="BackgroundImageFix"/>
<feColorMatrix in="SourceAlpha" type="matrix" values="0 0 0 0 0 0 0 0 0 0 0 0 0 0 0 0 0 0 127 0" result="hardAlpha"/>
<feOffset dy="4"/>
<feGaussianBlur stdDeviation="2"/>
<feComposite in2="hardAlpha" operator="out"/>
<feColorMatrix type="matrix" values="0 0 0 0 0 0 0 0 0 0 0 0 0 0 0 0 0 0 0.25 0"/>
<feBlend mode="normal" in2="BackgroundImageFix" result="effect1_dropShadow_1_72"/>
<feBlend mode="normal" in="SourceGraphic" in2="effect1_dropShadow_1_72" result="shape"/>
</filter>
<filter id="filter1_i_1_72" x="845.596" y="161.825" width="260.603" height="37.6222" filterUnits="userSpaceOnUse" color-interpolation-filters="sRGB">
<feFlood flood-opacity="0" result="BackgroundImageFix"/>
<feBlend mode="normal" in="SourceGraphic" in2="BackgroundImageFix" result="shape"/>
<feColorMatrix in="SourceAlpha" type="matrix" values="0 0 0 0 0 0 0 0 0 0 0 0 0 0 0 0 0 0 127 0" result="hardAlpha"/>
<feOffset dy="4"/>
<feGaussianBlur stdDeviation="2"/>
<feComposite in2="hardAlpha" operator="arithmetic" k2="-1" k3="1"/>
<feColorMatrix type="matrix" values="0 0 0 0 0.362417 0 0 0 0 0.362417 0 0 0 0 0.362417 0 0 0 0.41 0"/>
<feBlend mode="normal" in2="shape" result="effect1_innerShadow_1_72"/>
</filter>
<filter id="filter2_i_1_72" x="845.596" y="104.825" width="177.444" height="37.6222" filterUnits="userSpaceOnUse" color-interpolation-filters="sRGB">
<feFlood flood-opacity="0" result="BackgroundImageFix"/>
<feBlend mode="normal" in="SourceGraphic" in2="BackgroundImageFix" result="shape"/>
<feColorMatrix in="SourceAlpha" type="matrix" values="0 0 0 0 0 0 0 0 0 0 0 0 0 0 0 0 0 0 127 0" result="hardAlpha"/>
<feOffset dy="4"/>
<feGaussianBlur stdDeviation="2"/>
<feComposite in2="hardAlpha" operator="arithmetic" k2="-1" k3="1"/>
<feColorMatrix type="matrix" values="0 0 0 0 0.362417 0 0 0 0 0.362417 0 0 0 0 0.362417 0 0 0 0.41 0"/>
<feBlend mode="normal" in2="shape" result="effect1_innerShadow_1_72"/>
</filter>
</defs>
</svg>
